<svg id="visual" viewBox="0 0 900 600" width="900" height="600" xmlns="http://www.w3.org/2000/svg" xmlns:xlink="http://www.w3.org/1999/xlink" version="1.1"><rect x="0" y="0" width="900" height="600" fill="#140021"></rect><path d="M0 345L129 345L129 275L257 275L257 267L386 267L386 295L514 295L514 278L643 278L643 338L771 338L771 292L900 292L900 321L900 601L900 601L771 601L771 601L643 601L643 601L514 601L514 601L386 601L386 601L257 601L257 601L129 601L129 601L0 601Z" fill="#9900ff"></path><path d="M0 445L129 445L129 365L257 365L257 348L386 348L386 445L514 445L514 454L643 454L643 443L771 443L771 369L900 369L900 461L900 601L900 601L771 601L771 601L643 601L643 601L514 601L514 601L386 601L386 601L257 601L257 601L129 601L129 601L0 601Z" fill="#7700c6"></path><path d="M0 528L129 528L129 545L257 545L257 537L386 537L386 498L514 498L514 446L643 446L643 443L771 443L771 514L900 514L900 510L900 601L900 601L771 601L771 601L643 601L643 601L514 601L514 601L386 601L386 601L257 601L257 601L129 601L129 601L0 601Z" fill="#560090"></path></svg>